<?xml version="1.0" encoding="UTF-8" standalone="no"?>
<!-- Created with Inkscape (http://www.inkscape.org/) -->

<svg
   version="1.1"
   id="svg1"
   width="343"
   height="336"
   viewBox="0 0 343 336"
   sodipodi:docname="blubblub.svg"
   inkscape:version="1.3 (0e150ed6c4, 2023-07-21)"
   xmlns:inkscape="http://www.inkscape.org/namespaces/inkscape"
   xmlns:sodipodi="http://sodipodi.sourceforge.net/DTD/sodipodi-0.dtd"
   xmlns:xlink="http://www.w3.org/1999/xlink"
   xmlns="http://www.w3.org/2000/svg"
   xmlns:svg="http://www.w3.org/2000/svg">
  <defs
     id="defs1">
    <linearGradient
       id="linearGradient9"
       inkscape:swatch="gradient">
      <stop
         style="stop-color:#000000;stop-opacity:1;"
         offset="0"
         id="stop10" />
      <stop
         style="stop-color:#000000;stop-opacity:0;"
         offset="1"
         id="stop11" />
    </linearGradient>
    <linearGradient
       id="swatch9"
       inkscape:swatch="solid">
      <stop
         style="stop-color:#000000;stop-opacity:1;"
         offset="0"
         id="stop9" />
    </linearGradient>
    <linearGradient
       id="swatch8"
       inkscape:swatch="solid">
      <stop
         style="stop-color:#000000;stop-opacity:1;"
         offset="0"
         id="stop8" />
    </linearGradient>
    <linearGradient
       inkscape:collect="always"
       xlink:href="#swatch9"
       id="linearGradient12"
       gradientUnits="userSpaceOnUse"
       x1="171.04079"
       y1="149.09073"
       x2="324.95935"
       y2="149.09073"
       gradientTransform="matrix(1.1369652,0,0,1.1369642,-94.699401,6.1205511)" />
  </defs>
  <sodipodi:namedview
     id="namedview1"
     pagecolor="#ffffff"
     bordercolor="#000000"
     borderopacity="0.25"
     inkscape:showpageshadow="2"
     inkscape:pageopacity="0.0"
     inkscape:pagecheckerboard="0"
     inkscape:deskcolor="#d1d1d1"
     showgrid="false"
     inkscape:zoom="1.375"
     inkscape:cx="171.27273"
     inkscape:cy="168"
     inkscape:window-width="1280"
     inkscape:window-height="658"
     inkscape:window-x="-6"
     inkscape:window-y="-6"
     inkscape:window-maximized="1"
     inkscape:current-layer="g1" />
  <g
     inkscape:groupmode="layer"
     inkscape:label="Image"
     id="g1">
    <g
       id="g12"
       transform="matrix(1.8768831,0,0,1.8768831,-179.84862,-160.91731)">
      <ellipse
         style="fill:#3dffff;fill-opacity:1;fill-rule:nonzero;stroke:url(#linearGradient12);stroke-width:3.00805;stroke-dasharray:none"
         id="path2"
         cx="187.26813"
         cy="175.63141"
         rx="85.995964"
         ry="85.995972" />
      <path
         style="fill:#000000"
         d="m 213.93052,235.52702 c -5.04455,-1.24832 -8.79119,-3.51712 -13.05631,-7.90632 -3.97104,-4.08656 -6.51852,-8.46372 -7.25352,-12.46318 -0.59865,-3.2576 -0.94556,-3.51989 -3.31735,-2.50825 -7.17962,3.06233 -19.94718,3.33205 -29.14352,0.61566 -13.62024,-4.02312 -24.98236,-13.90592 -30.82252,-26.80952 -3.46584,-7.65762 -4.4139,-12.20745 -4.4139,-21.18268 0,-6.59653 0.22203,-8.79146 1.26559,-12.51145 5.07112,-18.077 17.45728,-30.70566 35.20875,-35.89809 5.76661,-1.68677 18.06705,-1.80707 23.6717,-0.23152 9.54145,2.68225 16.96978,6.97347 23.04837,13.31466 4.92209,5.13472 6.05651,6.6167 8.45136,11.04069 4.19637,7.75189 6.009,15.14763 5.99637,24.46592 -0.005,3.41176 -0.38054,7.71766 -0.85203,9.75953 -0.46406,2.00972 -0.77521,3.70034 -0.69143,3.75693 0.0838,0.0566 1.78964,0.39981 3.7908,0.76271 15.18608,2.75391 25.54016,18.49985 22.31869,33.94107 -2.24739,10.77223 -11.09414,19.80329 -21.64653,22.09749 -3.85653,0.83846 -8.54974,0.74737 -12.55452,-0.24365 z m 10.76642,-7.11213 c 8.58875,-1.66275 14.76867,-8.32745 16.32772,-17.60852 1.58803,-9.45362 -3.77925,-18.92483 -12.89333,-22.75185 -1.86947,-0.78499 -4.33359,-1.33163 -6.03893,-1.33966 l -2.88084,-0.0136 -2.68948,4.40499 c -3.20442,5.24839 -9.13717,11.78041 -13.46019,14.81982 l -3.12208,2.19505 0.3314,2.85645 c 0.47918,4.13027 3.27378,9.51916 6.39023,12.32246 3.21396,2.89101 5.14329,3.96223 8.79576,4.88367 3.55184,0.89605 5.54743,0.94597 9.23974,0.23115 z m 7.09064,-25.60309 c -0.3613,-0.48982 -1.97936,-2.23579 -3.59569,-3.87994 -2.95557,-3.00645 -3.61055,-4.5747 -2.14965,-5.14698 1.82547,-0.71509 7.49438,4.1785 8.75189,7.55492 0.69822,1.87473 0.74918,1.75786 -0.90743,2.08114 -0.91489,0.17854 -1.6824,-0.0442 -2.09912,-0.60914 z m -50.47616,0.76805 c 7.69493,-1.26987 14.34932,-4.83618 20.19161,-10.82134 7.45643,-7.63878 10.74084,-15.06598 11.27407,-25.49459 0.25385,-4.96466 0.10076,-6.84235 -0.881,-10.80555 -1.73697,-7.01192 -4.62367,-12.53247 -9.12753,-17.45563 -4.98597,-5.45017 -8.96296,-8.0921 -15.85948,-10.53556 -5.10003,-1.80696 -6.16994,-1.9854 -12.03498,-2.00729 -7.37809,-0.0275 -12.05623,1.14827 -18.70922,4.70242 -5.1008,2.72494 -11.77587,9.39945 -14.58784,14.58662 -3.74535,6.90893 -4.9496,11.65914 -4.9496,19.5238 0,5.80103 0.21815,7.53188 1.41641,11.23809 4.81887,14.90474 16.88264,25.43108 31.51246,27.49645 3.52558,0.49773 6.89042,0.37538 11.7551,-0.42742 z m 12.21465,-49.64816 c -1.58116,-2.53181 -3.48321,-4.60254 -5.8768,-6.39799 -4.27772,-3.20873 -4.60906,-3.74383 -3.9874,-6.43946 0.66384,-2.87858 1.98303,-2.92883 6.06376,-0.23101 4.20964,2.78305 8.46338,7.52119 10.55985,11.76236 1.87416,3.79141 1.63991,4.352 -1.99318,4.77003 l -2.42844,0.27942 z"
         id="path1" />
    </g>
  </g>
</svg>
